# xmcd
#
# Track frame offsets:
#	150
#	18695
#	33830
#	49530
#	65632
#	87255
#	105261
#	121819
#	139557
#	161094
#	175422
#	199179
#	219848
#	236060
#	254722
#	271157
#	285825
#	301922
#
# Disc length: 4403 seconds
#
# Revision: 1
# Processed by: cddbd v1.5.2PL0 Copyright (c) Steve Scherf et al.
# Submitted via: audiograbber 1.83.01
#
DISCID=f4113112
DTITLE=Various Artist - «везды 80-х
DYEAR=1900
DGENRE=Pop
TTITLE0=Chilly - We Are The Popkings
TTITLE1=Secret Service - Broken Heart
TTITLE2=F.R.David - Words
TTITLE3=Eruption - One Way Ticket
TTITLE4=Ottawan - Hands Up
TTITLE5=Boney M - Happy Song
TTITLE6=Silent Sircle - Touch In The Night
TTITLE7=Alphaville - Big In Japan
TTITLE8=Digital Emotion - Get Up, Action
TTITLE9=Chilly - Simply A Love Song
TTITLE10=Donna Summer - Hot Stuff
TTITLE11=Boney M - Chica Da Silva
TTITLE12=Blue System - Under My Skin
TTITLE13=Goombay Dance Band - Rain
TTITLE14=Videokids - Do The Rap
TTITLE15=Murray Head - One Night In Bangkok
TTITLE16=Arabesque - Born To Raggie
TTITLE17=Bisquit - Zoo-Zoo
EXTD=
EXTT0=
EXTT1=
EXTT2=
EXTT3=
EXTT4=
EXTT5=
EXTT6=
EXTT7=
EXTT8=
EXTT9=
EXTT10=
EXTT11=
EXTT12=
EXTT13=
EXTT14=
EXTT15=
EXTT16=
EXTT17=
PLAYORDER=
